<svg width="40" height="40" viewBox="0 0 40 40" fill="none" xmlns="http://www.w3.org/2000/svg">
<g clip-path="url(#clip0_2526_1904)">
<path d="M0 20.0002C0 23.465 0.881484 26.7239 2.4318 29.5654L20 31.3046L37.5682 29.5654C39.1185 26.7239 40 23.465 40 20.0002C40 16.5353 39.1185 13.2764 37.5682 10.4349L20 8.6958L2.4318 10.4349C0.881484 13.2764 0 16.5353 0 20.0002H0Z" fill="#D80027"/>
<path d="M2.43506 10.4348H37.5714C34.1794 4.21789 27.5841 0 20.0033 0C12.4224 0 5.82717 4.21789 2.43506 10.4348Z" fill="#1A47B8"/>
<path d="M20.0033 40.0002C27.5841 40.0002 34.1794 35.7823 37.5715 29.5654H2.43506C5.82717 35.7823 12.4224 40.0002 20.0033 40.0002Z" fill="#1A47B8"/>
<path d="M26.9544 23.9133V21.3046H25.2153V17.8263L23.4762 16.0872L21.737 17.8263V14.348L19.9979 12.6089L18.2587 14.348V17.8263L16.5196 16.0872L14.7804 17.8263V21.3046H13.0414V23.9133H11.3022V26.5219H28.6935V23.9133H26.9544Z" fill="white"/>
</g>
<defs>
<clipPath id="clip0_2526_1904">
<rect width="40" height="40" fill="white"/>
</clipPath>
</defs>
</svg>
