<svg width="28" height="28" viewBox="0 0 28 28" fill="none" xmlns="http://www.w3.org/2000/svg">
<path d="M14 28C21.732 28 28 21.732 28 14C28 6.26801 21.732 0 14 0C6.26801 0 0 6.26801 0 14C0 21.732 6.26801 28 14 28Z" fill="white"/>
<path d="M2.89493 5.47656C1.79522 6.90735 0.96599 8.55645 0.483154 10.348H7.76633L2.89493 5.47656Z" fill="#1A47B8"/>
<path d="M27.5174 10.3479C27.0346 8.55645 26.2053 6.90735 25.1057 5.47656L20.2344 10.3479H27.5174Z" fill="#1A47B8"/>
<path d="M0.483154 17.6523C0.966045 19.4438 1.79527 21.0929 2.89493 22.5236L7.76616 17.6523H0.483154Z" fill="#1A47B8"/>
<path d="M22.5264 2.89425C21.0956 1.79454 19.4465 0.965312 17.655 0.482422V7.76554L22.5264 2.89425Z" fill="#1A47B8"/>
<path d="M5.47803 25.1061C6.90882 26.2058 8.55792 27.035 10.3494 27.5179V20.2349L5.47803 25.1061Z" fill="#1A47B8"/>
<path d="M10.3493 0.482422C8.55786 0.965312 6.90876 1.79454 5.47803 2.8942L10.3493 7.76548V0.482422Z" fill="#1A47B8"/>
<path d="M17.655 27.5179C19.4465 27.035 21.0956 26.2058 22.5263 25.1062L17.655 20.2349V27.5179Z" fill="#1A47B8"/>
<path d="M20.2344 17.6526L25.1057 22.5239C26.2053 21.0932 27.0346 19.444 27.5174 17.6526H20.2344Z" fill="#1A47B8"/>
<path d="M27.8815 12.1739H15.8262H15.8261V0.118508C15.2283 0.0406875 14.6189 0 14 0C13.381 0 12.7717 0.0406875 12.1739 0.118508V12.1738V12.1739H0.118508C0.0406875 12.7717 0 13.3811 0 14C0 14.619 0.0406875 15.2283 0.118508 15.8261H12.1738H12.1739V27.8815C12.7717 27.9593 13.381 28 14 28C14.6189 28 15.2283 27.9594 15.8261 27.8815V15.8262V15.8261H27.8815C27.9593 15.2283 28 14.619 28 14C28 13.3811 27.9593 12.7717 27.8815 12.1739Z" fill="#D80027"/>
<path d="M17.6504 17.6522L23.8977 23.8994C24.185 23.6122 24.4591 23.3119 24.7206 23.0006L19.3721 17.6521H17.6504V17.6522Z" fill="#D80027"/>
<path d="M10.3489 17.6521H10.3488L4.10156 23.8993C4.38878 24.1867 4.68907 24.4607 5.00035 24.7223L10.3489 19.3736V17.6521Z" fill="#D80027"/>
<path d="M10.3468 10.3478V10.3477L4.09955 4.10034C3.81222 4.38756 3.53813 4.68785 3.27661 4.99913L8.62521 10.3477H10.3468V10.3478Z" fill="#D80027"/>
<path d="M17.6504 10.3481L23.8977 4.10072C23.6105 3.81339 23.3102 3.53929 22.9989 3.27783L17.6504 8.62643V10.3481Z" fill="#D80027"/>
</svg>
